<?xml version="1.0" standalone="no"?><!DOCTYPE svg PUBLIC "-//W3C//DTD SVG 1.1//EN" "http://www.w3.org/Graphics/SVG/1.1/DTD/svg11.dtd"><svg t="1520407541243" class="icon" style="" viewBox="0 0 1024 1024" version="1.1" xmlns="http://www.w3.org/2000/svg" p-id="2672" xmlns:xlink="http://www.w3.org/1999/xlink" width="30" height="30"><defs><style type="text/css"></style></defs><path d="M512 64.49899c-247.14789 0-447.50101 200.353121-447.50101 447.50101s200.353121 447.50101 447.50101 447.50101 447.50101-200.353121 447.50101-447.50101S759.14789 64.49899 512 64.49899zM750.666728 512c0 13.181207-10.685363 23.86657-23.86657 23.86657L535.86657 535.86657l0 190.933587c0 13.181207-10.685363 23.86657-23.86657 23.86657l0 0c-13.181207 0-23.86657-10.685363-23.86657-23.86657L488.13343 535.86657 297.198819 535.86657c-13.181207 0-23.86657-10.685363-23.86657-23.86657l0 0c0-13.181207 10.685363-23.86657 23.86657-23.86657l190.933587 0L488.132406 297.198819c0-13.181207 10.685363-23.86657 23.86657-23.86657l0 0c13.181207 0 23.86657 10.685363 23.86657 23.86657l0 190.933587 190.933587 0C739.981365 488.13343 750.666728 498.818793 750.666728 512L750.666728 512z" p-id="2673" fill="#bfbfbf"></path></svg>