<?xml version="1.0" standalone="no"?><!DOCTYPE svg PUBLIC "-//W3C//DTD SVG 1.1//EN" "http://www.w3.org/Graphics/SVG/1.1/DTD/svg11.dtd"><svg t="1547523464387" class="icon" style="" viewBox="0 0 1024 1024" version="1.1" xmlns="http://www.w3.org/2000/svg" p-id="2813" xmlns:xlink="http://www.w3.org/1999/xlink" width="200" height="200"><defs><style type="text/css"></style></defs><path d="M950.857143 109.714286l0 804.571429q0 14.857143-10.857143 25.714286t-25.714286 10.857143l-292.571429 0q-14.857143 0-25.714286-10.857143t-10.857143-25.714286l0-804.571429q0-14.857143 10.857143-25.714286t25.714286-10.857143l292.571429 0q14.857143 0 25.714286 10.857143t10.857143 25.714286zm-512 0l0 804.571429q0 14.857143-10.857143 25.714286t-25.714286 10.857143l-292.571429 0q-14.857143 0-25.714286-10.857143t-10.857143-25.714286l0-804.571429q0-14.857143 10.857143-25.714286t25.714286-10.857143l292.571429 0q14.857143 0 25.714286 10.857143t10.857143 25.714286z" p-id="2814" fill="#ffffff"></path></svg>