<?xml version="1.0" standalone="no"?><!DOCTYPE svg PUBLIC "-//W3C//DTD SVG 1.1//EN" "http://www.w3.org/Graphics/SVG/1.1/DTD/svg11.dtd"><svg t="1514166745129" class="icon" style="" viewBox="0 0 1027 1024" version="1.1" xmlns="http://www.w3.org/2000/svg" p-id="2312" xmlns:xlink="http://www.w3.org/1999/xlink" width="200.5859375" height="200"><defs><style type="text/css"></style></defs><path d="M183.99401 331.50464c35.37024-1.8496 67.50592 6.5728 96.96256 27.15136 5.62432 3.93984 18.62144 3.24736 24.93312-0.6464 66.0928-40.75008 131.80416-33.77024 198.35648-1.58336 6.5728 3.18464 17.66144 4.19456 23.42912 0.77824 65.21728-38.69696 130.03392-34.22464 195.78496-1.63456 7.18592 3.5648 19.80288 4.77824 25.78944 0.83968 64.96384-42.75456 170.0928-31.85152 225.08416 22.98624 60.93824 60.76288 68.98176 160.30848 25.85856 230.75968-48.66304 79.50336-162.1184 103.0912-233.1776 63.84512-21.43616-11.84-36.99328-12.98048-60.93312-0.59648-49.9456 25.84704-104.32896 28.71424-156.24832 1.952-22.87232-11.79392-40.43904-14.91456-66.33088-1.4528-51.07456 26.56128-106.83776 28.09344-158.69568-0.36864-23.52-12.90752-40.81408-11.30112-64.384 0.12416C137.75529 733.1456 3.06729 647.37536 0.04777 513.62944c-2.1568-95.76448 75.24096-188.54912 183.94624-182.1248z m587.12576 68.52736c44.51328 69.20832 49.20064 138.592 7.92832 209.88416-2.63424 4.54656 2.40128 19.3536 7.38432 21.60128 52.01792 23.45216 102.63808 18.84416 146.65728-17.57184 36.57984-30.26304 55.4112-72.51072 47.44192-119.51104-17.41696-102.73408-128.20608-147.48032-209.41184-94.40256z m-514.8416 0.34688c-71.67232-40.72832-135.36384-27.20384-186.4832 38.04288-32.67456 41.70496-27.69664 116.45312 10.45376 156.91392 53.65248 56.89216 117.2352 66.60864 175.54688 25.63072-47.33312-73.23136-45.41056-147.46368 0.48256-220.58752z m442.65856-0.256c-50.76864-30.22848-98.69824-30.75072-149.38752 0.06784 44.66176 68.66432 49.44 138.40512 8.60416 209.99808-2.56512 4.50688 2.74688 19.29728 7.74144 21.41952 44.88832 19.06944 89.18144 20.3072 132.22016-9.10336-42.23872-74.14656-42.98752-147.11168 0.82176-222.38208zM328.83625 620.45056c47.87328 33.25952 101.53088 33.22496 148.0768 0.54528-44.90624-72.98688-47.07328-146.98624 1.58976-220.45184-50.97344-31.11424-98.91456-30.784-149.16096-0.8512 45.11488 74.0544 50.32448 148.2688-0.5056 220.75776z m186.24-184.7808c-33.13408 51.9488-30.34752 99.92448-1.76 148.76288 35.00672-49.57056 31.50464-97.93792 1.76-148.76288z m-222.144 148.95616c32.1344-48.82304 32.11264-97.12128-0.02304-145.97632-32.12928 48.82048-32.11904 97.12 0.02304 145.97632z m442.7264-149.12128c-31.98208 59.79776-29.64352 121.10592 4.2624 144.89856 26.94656-47.68128 26.7776-94.7712-4.2624-144.89856z" fill="#515151" p-id="2313"></path></svg>