<?xml version="1.0" standalone="no"?><!DOCTYPE svg PUBLIC "-//W3C//DTD SVG 1.1//EN" "http://www.w3.org/Graphics/SVG/1.1/DTD/svg11.dtd"><svg t="1514166733690" class="icon" style="" viewBox="0 0 1024 1024" version="1.1" xmlns="http://www.w3.org/2000/svg" p-id="2121" xmlns:xlink="http://www.w3.org/1999/xlink" width="200" height="200"><defs><style type="text/css"></style></defs><path d="M478.72 100.08381v242.590476h-132.144762v227.718095c10.118095 85.552762 54.174476 128.487619 132.144762 128.828952V1024C290.913524 927.134476 136.728381 790.723048 128.828952 626.663619L85.333333 53.369905C245.467429 16.822857 342.308571 0 478.72 0v32.377905h-25.941333c-3.949714 0-17.310476 0.853333-17.164191 20.992 0.121905 20.138667 14.189714 20.504381 17.164191 20.504381h25.941333v11.385904h-41.008762v14.82362h41.008762z m0-41.008762v-11.897905h-17.798095a5.948952 5.948952 0 1 0 0 11.897905h17.798095z m0-26.697143h51.882667v14.799238h-51.882667v11.897905h36.571429c3.34019 0 17.92-0.999619 17.92 20.382476 0 21.357714-12.970667 20.626286-17.92 20.626286h-36.571429v14.579809c90.940952 0 194.730667 6.92419 369.298286 50.614857l7.289904-98.06019C787.114667 50.395429 640.828952 15.823238 478.72 15.823238v16.554667z m0 41.496381v11.385904h28.672c3.267048 0 5.924571-2.169905 5.924571-5.436952a5.948952 5.948952 0 0 0-5.924571-5.948952h-28.672z m0-58.051048V0c136.411429 0 233.276952 16.822857 393.386667 53.394286l-43.495619 573.269333c-7.899429 164.08381-162.084571 300.470857-349.866667 397.336381V699.245714h0.243809c78.165333 0.219429 122.270476-42.691048 132.33981-128.731428v-227.84h-132.608V114.663619c-90.940952 0-194.706286 6.92419-369.298286 50.614857L102.15619 67.218286C170.325333 50.395429 316.635429 15.823238 478.72 15.823238z m-196.705524 856.259048c57.61219 52.175238 125.68381 95.573333 188.806095 128.926476v-129.340952l-188.806095 0.438857z m188.806095-111.616v-46.031238c-54.150095-2.462476-92.038095-30.232381-114.688-62.902858l-209.310476 0.24381c6.046476 38.424381 20.48 74.727619 40.838095 108.739048l283.160381-0.048762z m0-434.297905V131.559619c-78.336 1.121524-184.856381 5.412571-359.936 51.273143l27.501715 359.984762 192.073143-0.048762v-66.657524c-5.36381-4.217905-13.653333-11.044571-38.351239-11.044571-14.628571 0-56.05181 13.824-80.14019 43.349333-0.341333 10.337524-6.265905 14.214095-11.337143 14.214095a9.167238 9.167238 0 0 1-6.92419-3.120762 9.191619 9.191619 0 0 1-14.628572-7.411809c0-3.82781 2.706286-7.363048 6.022095-8.777143a7.509333 7.509333 0 0 1-0.341333-2.243048 9.191619 9.191619 0 0 1 13.897143-7.899428c1.121524 0.560762 4.803048 3.047619 5.485714-2.121143 0.487619-5.485714-0.195048-57.148952 27.428572-64.950857 2.998857-0.682667 1.999238 1.657905 0.658285 2.998857-1.340952 1.316571-13.55581 22.430476-11.922285 49.030095 3.34019-1.999238 10.581333-7.43619 14.896762-9.094095 1.340952-5.680762 10.898286-48.664381 33.743238-49.103238 2.681905 0 1.999238 1.999238 0 3.34019-1.999238 1.340952-11.946667 13.092571-13.945905 34.133334 3.34019-1.024 11.654095-2.438095 13.336381-2.779429 1.316571-4.998095 11.166476-33.792 29.842286-35.474286 2.340571 0 1.340952 2.438095 0.341333 3.413334-0.975238 0.999619-10.898286 14.750476-12.848762 28.16 3.31581-0.341333 11.068952-0.073143 13.409524 0.585143 1.999238-2.584381 17.822476-19.968 31.378286-25.648762l0.048761-58.563048c-2.608762-2.340571-6.680381-4.87619-19.114666-4.87619-19.504762-0.073143-52.053333 7.972571-96.963048 37.351619-0.463238 13.775238-8.362667 18.919619-15.11619 18.919619a12.239238 12.239238 0 0 1-9.216-4.144762 12.263619 12.263619 0 0 1-19.504762-9.898667c0-5.071238 3.608381-9.801143 7.996952-11.654095a9.97181 9.97181 0 0 1-0.463238-3.023238 12.263619 12.263619 0 0 1 18.553905-10.532572c1.511619 0.731429 7.728762 3.413333 8.630857-3.462095 0.658286-7.338667 11.946667-68.778667 49.737143-74.118095 3.998476-0.877714 2.681905 2.218667 0.877714 3.998476-1.77981 1.77981-31.207619 25.941333-29.062095 61.44 4.461714-2.681905 18.041905-9.264762 23.82019-11.459048 1.77981-7.558095 18.505143-53.686857 48.932572-54.272 3.559619 0 2.681905 2.681905 0 4.437334-2.681905 1.77981-21.211429 14.823619-23.868953 42.861714 4.461714-1.340952 18.18819-4.559238 20.406858-4.998095 1.77981-6.680381 13.604571-33.206857 38.521904-35.425524 3.096381 0 1.755429 3.193905 0.438857 4.534857-1.340952 1.340952-14.531048 10.435048-17.16419 28.330667 2.535619-0.24381 7.92381 0.707048 12.580571 1.633524l-0.073142-16.579048h140.361142zM208.896 291.108571c-0.487619 15.335619-9.264762 21.040762-16.822857 21.040762a13.604571 13.604571 0 0 1-10.24-4.632381 13.628952 13.628952 0 0 1-21.699048-10.971428c0.024381-5.632 4.047238-10.898286 8.94781-12.970667a11.093333 11.093333 0 0 1-0.512-3.34019 13.628952 13.628952 0 0 1 20.601905-11.702857c1.682286 0.828952 8.606476 3.803429 9.581714-3.852191 0.731429-8.167619 11.605333-80.798476 53.638095-86.747429 4.437333-0.975238 2.950095 2.486857 0.975238 4.461715-1.974857 1.950476-34.596571 28.16-30.646857 72.655238 4.949333-2.974476 22.235429-11.385905 28.672-13.848381 1.462857-11.361524 17.798095-64.24381 54.369524-65.243429 3.949714 0 2.950095 2.974476 0 4.949334-2.974476 1.974857-25.209905 19.748571-28.184381 50.907428 4.949333-1.487238 20.772571-3.949714 23.235047-4.461714 1.950476-7.41181 17.310476-43.471238 44.958477-45.958095 3.462095 0 1.999238 2.486857 0.487619 3.949714-1.462857 1.487238-21.211429 18.285714-21.211429 38.058667 4.924952-0.487619 18.773333-0.487619 22.211048 0.487619 3.462095-4.437333 18.285714-20.72381 39.545905-22.235429 3.462095 0 1.974857 2.486857 0 4.461714-1.974857 1.950476-14.823619 13.336381-17.310477 23.722667 7.41181 3.949714 28.672 18.285714 31.134477 34.084572 0.487619 3.949714-1.950476 3.949714-4.924953 1.487238-2.974476-2.462476-25.697524-20.74819-54.369524-20.748191s-82.529524 13.824-132.437333 46.445714z m418.084571 142.262858l-0.341333 108.836571 191.804952 0.585143 8.557715-109.982476-200.021334 0.560762z m216.649143-219.331048l-357.010285-2.023619v115.443809h348.403809l8.606476-113.42019zM569.782857 684.81219l-2.218667 4.632381c-4.242286 9.216-4.534857 14.019048-3.145142 29.500953 3.949714-2.364952 11.873524-5.12 16.993523-7.119238 1.194667-9.094095 25.551238-52.053333 58.806858-53.150476 3.169524 0 2.389333 2.364952 0 3.925333-2.364952 1.584762-28.793905 17.432381-32.426667 40.71619 3.974095-1.170286 27.989333-5.12 29.988571-5.510095 1.560381-5.948952 15.286857-28.867048 37.449143-30.841905 2.755048 0-0.902095 4.242286 0.390095 3.169524-8.850286 7.43619-14.774857 14.848-16.993523 24.990476 3.949714-0.390095 17.481143 0.585143 20.23619 1.389715 2.779429-3.559619 17.066667-12.53181 37.059048-9.898667 2.779429 0 2.072381 2.681905 0 3.559619-2.681905 1.219048-17.286095 2.779429-19.260953 11.093333 29.915429 16.335238 33.816381 35.352381 35.791238 48.030477 0.390095 3.169524-1.584762 3.169524-3.949714 1.170285-2.389333-1.950476-24.673524-32.743619-55.344762-34.377143-27.136-1.462857-88.429714 14.848-128.707047 36.156953-0.390095 12.263619-3.462095 13.897143-9.508572 13.897143a10.873905 10.873905 0 0 1-8.167619-3.705905c-1.828571 1.414095-3.437714 1.121524-5.948952 1.121524-6.022095 0-9.923048-4.87619-9.923048-10.898286 0-4.534857 1.755429-7.728762 5.656381-9.386667a8.874667 8.874667 0 0 1-0.414476-2.681904 10.898286 10.898286 0 0 1 16.481524-9.362286c1.340952 0.658286 8.850286 0.073143 9.654857-6.046476 0.24381-2.925714 0-8.679619 4.632381-22.284191l0.438857-3.949714a148.48 148.48 0 0 1-60.708571 15.481905v286.841904c138.361905-73.142857 300.470857-194.730667 324.193523-350.890666l7.021715-92.891429-190.878477 0.585143v19.163429c0 32.182857-18.578286 77.872762-57.197714 107.593142z m-32.426667 145.92c-0.341333 9.801143-2.80381 11.093333-7.606857 11.093334a8.704 8.704 0 0 1-6.558476-2.950095c-1.462857 1.121524-2.755048 0.877714-4.754286 0.877714-4.827429 0-7.92381-3.900952-7.923809-8.704 0-3.632762 1.389714-6.192762 4.510476-7.509333a7.070476 7.070476 0 0 1-0.316952-2.145524 8.728381 8.728381 0 0 1 13.165714-7.484953c1.072762 0.536381 7.070476 0.048762 7.728762-4.851809 0.487619-5.217524 11.288381-44.397714 38.180571-48.201143 2.82819-0.633905 1.877333 1.584762 0.609524 2.852571 2.169905-2.145524-23.064381 17.944381-21.089524 40.374858 3.169524-1.901714 12.458667-5.12 16.579048-6.680381 0.950857-7.289905 22.918095-40.17981 49.493333-41.057524 2.56 0 1.926095 1.877333 0 3.169524-1.877333 1.243429-25.014857 13.409524-27.891809 32.060952 3.169524-0.950857 18.919619-4.096 20.48-4.412952 1.29219-4.754286 17.993143-25.6 37.400381-25.161143 2.194286 0-0.731429 3.388952 0.316952 2.511238-7.070476 5.948952-20.23619 13.360762-21.991619 21.504 3.169524-0.316952 13.994667 0.487619 16.188952 1.097143 2.218667-2.852571 14.628571-11.02019 30.646858-8.899048 2.218667 0 1.633524 2.121143 0 2.852571-2.169905 0.975238-12.336762 4.193524-13.921524 10.825143 17.286095 10.215619 24.064 20.894476 25.648762 31.012572 0.316952 2.535619-1.26781 2.535619-3.169524 0.975238-1.901714-1.609143-20.23619-19.285333-44.763429-20.626286-21.699048-1.145905-68.754286 10.410667-100.985904 27.477333z m-8.655238 67.608381c-0.24381 6.704762-3.413333 8.094476-6.680381 8.094477a5.948952 5.948952 0 0 1-4.486095-2.023619c-0.999619 0.75581-1.877333 0.609524-3.242666 0.609523-3.31581 0-5.436952-2.681905-5.436953-5.973333 0-2.462476 0.950857-4.217905 3.096381-5.12a4.827429 4.827429 0 0 1-0.243809-1.462857 5.973333 5.973333 0 0 1 9.020952-5.12c0.731429 0.341333 4.87619 0.024381 5.290667-3.31581 0.316952-3.584 2.121143-31.036952 18.70019-33.962666 1.950476-0.438857 1.29219 1.072762 0.438857 1.950476 1.462857-1.462857-9.849905 11.605333-7.021714 27.843048 2.169905-1.29219 6.290286-2.730667 9.094095-3.82781 0.658286-4.973714 6.777905-27.964952 24.990476-28.574476 1.706667 0 1.29219 1.29219 0 2.169905-1.316571 0.853333-8.97219 8.94781-10.947047 21.699047 2.438095-1.26781 8.630857-2.267429 11.068952-3.023238 0.853333-3.242667 14.019048-20.967619 27.306667-20.675048 1.487238 0-0.487619 2.31619 0.195047 1.706667-4.827429 4.096-11.361524 10.654476-12.580571 16.213333 2.169905-0.24381 7.363048-0.438857 8.874667 0a18.67581 18.67581 0 0 1 17.993143-7.314285c1.511619 0 1.121524 1.462857 0 1.950476a12.678095 12.678095 0 0 0-6.582858 7.899429c12.775619 6.168381 18.212571 11.580952 19.285334 18.505142 0.24381 1.706667-0.853333 1.706667-2.145524 0.633905-1.316571-1.072762-12.848762-8.97219-29.647238-9.874286-14.872381-0.804571-43.910095 7.289905-66.340572 20.992zM424.667429 89.088v11.410286l-17.091048 0.828952v-10.044952c0-9.99619-5.485714-16.237714-14.774857-15.60381l-47.201524 3.096381 0.487619 27.282286-17.017905 0.804571-1.852952-68.242285 70.826667-4.705524c12.970667-1.048381 24.380952 1.609143 24.33219 19.382857 0 5.071238-1.80419 10.24-4.559238 14.848 3.584 2.779429 6.92419 10.191238 6.851048 20.943238z m-28.91581-28.330667c3.510857-0.24381 6.363429-1.950476 6.192762-5.558857-0.170667-3.608381-1.80419-5.046857-5.778286-5.12l-51.248762 2.681905 0.24381 10.825143 50.590476-2.828191zM121.904762 148.772571l-4.949333-68.705523 70.436571-15.823238c8.899048-1.974857 21.504-0.731429 21.991619 15.067428 0.487619 15.823238-2.462476 22.503619-13.604571 24.966095l-59.050667 13.336381L138.971429 144.822857l-17.042286 3.949714z m13.336381-57.10019l0.487619 10.142476 49.176381-10.873905c4.217905-0.975238 4.949333-4.461714 4.705524-6.680381-0.195048-1.706667-1.974857-4.193524-6.924191-3.218285-4.924952 0.975238-47.445333 10.630095-47.445333 10.630095z m84.772571-19.748571c0-6.436571-0.24381-15.847619 17.310476-18.529524l57.051429-9.411048c6.92419-1.219048 22.503619 3.462095 22.503619 16.310857l0.731429 33.109334c0.24381 6.92419-0.24381 16.067048-18.773334 18.773333l-52.906666 8.411428c-9.362286 1.706667-24.697905 0.24381-25.185524-17.554285l-0.731429-31.134476z m17.310476 7.655619l0.48762 18.529523c0.487619 7.655619 4.437333 7.41181 10.361904 6.412191l43.25181-6.924191c7.168-1.219048 8.630857-6.41219 8.630857-9.630476l-0.487619-20.23619c0-4.705524-4.949333-8.167619-9.630476-7.436191l-43.739429 7.41181c-9.142857 1.731048-8.899048 6.680381-8.899047 11.873524 0 5.168762 0 0 0 0z m241.39581 20.48v-14.799239 14.82362z m0-26.185143v-14.799238 14.799238z m0-26.697143v-14.799238 14.799238z m173.958095-6.412191l16.335238 2.486858-1.511619 25.697523 57.344 10.873905 1.706667-27.184762 16.091429 2.950095-4.217905 69.948953-16.310857-2.974476 1.974857-28.672-57.319619-10.873905-1.974857 30.159238-16.310858-2.218667 4.193524-70.192762z m101.059048 86.991238l3.974095-69.193142 78.57981 16.579047-0.975238 14.06781-62.049524-13.092572-0.487619 12.848762 61.537523 13.092572-0.975238 14.09219-61.561904-13.116952-0.731429 14.09219 61.293714 13.092572-1.243428 14.09219-77.360762-16.579047z m-116.614095-72.899047l-61.781334-4.949333c-9.386667-0.731429-11.361524 4.705524-11.605333 10.630095l-0.487619 14.823619c-0.487619 10.386286 5.656381 12.117333 11.361524 12.361143l60.294095 4.437333-0.731429 15.335619-72.167619-5.436952c-13.092571-0.975238-17.310476-12.604952-17.066666-19.504762l1.487238-29.42781c0.975238-20.260571 12.848762-19.748571 19.017143-19.260952l72.411428 5.680762-0.731428 15.311238zM369.005714 542.890667c-0.24381 2.706286-0.487619 10.386286-1.462857 12.848762-0.999619 2.462476-5.705143 4.681143-9.654857 2.974476-3.949714-1.731048 0-10.873905 0.24381-12.361143 1.487238-5.436952 4.193524-6.92419 4.193523-10.386286 0-9.874286 3.462095-7.899429 5.705143-13.092571 2.194286-5.193143 11.117714-17.310476 12.848762-19.260953 3.462095-4.949333 8.899048-2.486857 11.361524-0.487619 3.705905 2.925714 10.386286 5.656381 16.310857 7.875048 1.219048-1.462857 2.706286-2.706286 3.949714-8.630857 1.219048-5.924571 3.705905-12.361143 6.924191-15.067429 3.193905-2.730667 10.118095-11.873524 13.092571-14.848 1.462857-2.706286 4.681143-5.168762 1.219048-9.386666-3.437714-4.193524-6.656-0.24381-11.117714 3.462095-4.437333 3.705905-7.41181 0.975238-7.143619-0.24381 0.24381-1.219048 0.24381-1.706667-1.243429-3.949714-1.462857-2.218667-3.705905 0.487619-6.436571-3.462095-0.926476-1.365333-0.731429-4.193524 1.487238-6.680381 2.218667-2.706286 3.462095-4.437333 5.193142-6.168381 1.731048-1.731048 8.899048-5.680762 13.092572-9.898667 1.487238-0.975238 4.193524-0.975238 4.705524-1.950476 0.487619-0.999619-0.731429-3.730286-0.487619-6.192762 0.24381-2.462476 8.387048-4.437333 11.605333-4.681143-1.462857-4.461714 1.219048-7.43619 4.193524-9.167238 2.974476-1.706667 4.949333 0 4.461714 1.731048-0.487619 1.731048-0.487619 4.461714 1.219048 5.436952 1.731048 0.999619 3.218286 3.462095 3.218285 4.217905 0 0.731429-0.731429 1.950476 1.219048 3.705905 1.999238 1.706667 4.217905-0.975238 2.486857-2.730667-1.706667-1.706667-1.706667-4.681143 1.462857-6.656 3.242667-1.974857 7.192381-0.487619 9.654857 2.194286 2.462476 2.730667 12.117333-0.975238 14.57981-0.975238 2.462476 0 2.218667 2.486857 1.219048 3.218285-0.975238 0.731429-1.462857 2.218667 0.243809 3.949715 1.755429 1.731048 7.43619-0.731429 12.385524-0.975238 4.924952-0.24381 4.193524 3.462095 1.462857 4.193523-6.41219 2.462476-6.168381 4.681143-4.924952 8.655238 1.219048 3.949714 4.681143 3.193905 10.873904 2.950096 6.168381-0.24381 4.924952 3.949714 2.194286 4.949333-2.681905 0.975238-5.412571 4.437333-5.412571 6.436571 0 1.950476 6.168381 3.437714 10.386285 4.681143 4.193524 1.219048 4.437333 4.193524 1.950477 5.436953-2.438095 1.219048-2.681905 2.462476-2.438096 4.437333 0.24381 1.999238 0 4.461714-3.730285 4.705524-3.705905 0.24381-6.41219 3.462095-6.656 4.949333-0.24381 1.462857 1.950476 2.950095 5.924571 4.437333 3.949714 1.487238 2.462476 6.192762 0.24381 6.680381-2.218667 0.487619-4.193524-1.219048-6.168381 3.462096-1.974857 4.681143-4.217905 5.193143-6.436572 5.193143-2.218667 0-4.193524 0.487619-5.436952 2.950095a8.679619 8.679619 0 0 1-4.949333 4.461714c-3.120762 1.560381-6.89981 4.193524-0.731429 9.386667 6.168381 5.193143 32.134095 11.605333 40.033524 11.117714 7.899429-0.487619 19.992381 3.218286 23.722666 5.680762 3.705905 2.462476 8.143238 7.655619 13.092572 2.706286 4.949333-4.924952-1.706667-11.361524-6.168381-16.286477-9.142857-7.92381-7.168-15.335619-6.680381-18.773333 0.487619-3.486476-1.974857-8.411429-1.462857-11.142095a11.995429 11.995429 0 0 1 5.90019-7.899429c3.462095-1.974857 4.217905-4.193524 5.705143-6.192762 4.681143-7.899429 10.118095-6.656 17.310476-7.899428 7.143619-1.219048 6.41219-1.219048 9.118477-7.899429 2.730667-6.680381 6.680381-6.92419 7.655619-5.436952 0.975238 1.462857 0 5.436952-0.975238 7.411809 0.731429 1.706667 1.462857 3.949714-0.48762 8.387048-1.999238 4.461714-14.848 8.655238-17.310476 9.411048-2.462476 0.731429-0.487619 3.462095 1.219048 2.194285 11.142095-8.143238 13.360762 0.75581 13.604571 3.486477 7.168-0.24381 6.92419 4.924952 6.168381 9.142857 2.243048 6.656-2.706286 11.849143-5.168762 14.067809-2.486857 2.243048 1.219048 5.193143 4.681143 5.705143-0.975238 3.949714 0 7.899429 1.974857 10.873905 1.974857 2.950095-0.487619 9.386667-3.949714 12.336762 0.975238 1.487238 1.487238 8.411429 0 11.873524-1.462857 3.462095-13.824 3.949714-19.260952 1.462857-5.436952-2.438095-7.92381-3.437714-12.117334-2.194286 1.462857 3.681524 2.974476 8.630857 0.487619 19.260952-2.462476 10.630095-10.630095 14.823619-12.092952 21.74781-1.487238 6.92419 6.168381 17.554286 8.387048 21.479619 2.218667 3.974095 3.218286 7.92381-1.462857 10.630095-4.705524 2.730667-10.630095 11.873524-12.629334 16.579048-1.950476 4.681143-11.117714 12.092952-16.286476 14.311619-5.193143 2.218667-3.462095 3.949714-3.705905 7.655619-0.24381 3.705905-5.948952 6.436571-8.411428 6.436571-2.462476 0-3.949714 2.706286-4.437334-2.730666a19.748571 19.748571 0 0 1 3.949715-13.580191c2.706286-3.949714 7.655619-6.680381 13.336381-11.117714 5.680762-4.461714 7.168-9.386667 8.411428-12.361143 1.219048-2.950095 4.681143-5.680762 6.412191-8.655238-0.975238-1.462857-1.219048-2.706286-2.218667-4.924952-5.924571-8.167619-18.529524-10.873905-22.479238-11.873524-2.730667 2.974476-2.486857 8.655238-1.999238 10.873904 0.487619 2.218667 0 6.680381-4.437334 7.41181-4.437333 0.731429-15.823238 4.461714-21.504 11.361524-5.680762 6.92419-14.06781 7.43619-16.798476 8.167619-2.706286 0.731429-2.218667 4.949333-2.706285 6.92419-0.487619 1.950476-2.486857 5.436952-9.654858 5.436953-7.168 0-2.706286-7.41181-0.731428-11.629715 1.974857-4.193524 3.949714-4.193524 7.168-7.411809 3.218286-3.218286 5.924571-4.437333 12.848762-6.412191 6.92419-1.974857 15.311238-10.630095 18.529524-13.092571 5.436952-4.949333 4.193524-14.336 0.975238-17.310476-3.949714-3.218286-10.118095-14.57981-13.092572-19.748572-16.310857 1.706667-44.227048-8.655238-48.90819-12.117333-6.92419 7.655619-29.671619 1.462857-34.620953-0.243809-6.168381-1.243429-8.874667 0.975238-9.874285 4.681142a16.213333 16.213333 0 0 0 1.731047 11.629715 19.651048 19.651048 0 0 1 2.730667 11.849143c-0.487619 4.437333 4.193524 8.411429 5.924571 8.655238 4.949333 0.487619 3.462095 5.436952 2.974477 10.361904-0.487619 4.949333-6.436571 2.486857-8.899048 0.24381l-6.192762-8.630857a18.724571 18.724571 0 0 1-5.924571-17.798095c0.731429-3.705905 0.24381-8.655238-1.706667-20.260572-1.999238-11.605333 1.706667-12.361143 6.41219-13.336381a89.234286 89.234286 0 0 0 17.310477-6.192762c-9.411048-3.949714-14.116571-17.066667-16.822858-22.966857-2.706286-5.924571-7.899429-3.705905-9.386666-2.218667-1.487238 1.462857-5.680762 5.680762-7.168 7.899429-1.462857 2.218667-0.731429 3.949714-1.219048 6.168381-0.512 2.218667-4.461714 6.680381-5.705143 10.386286z m-4.461714-157.305905c0.731429 4.193524 2.681905 5.924571 6.582857 5.924571 3.242667 0 5.510095-1.706667 5.510095-4.193523 0-1.340952-0.731429-2.218667-2.608762-3.120762l-9.045333-4.193524c-3.949714-1.828571-5.729524-4.559238-5.729524-8.94781 0-6.582857 4.291048-10.922667 10.825143-10.922666 7.143619 0 11.264 4.096 11.556572 11.605333h-5.924572c-0.609524-3.949714-2.218667-5.583238-5.534476-5.583238-2.974476 0-5.12 1.731048-5.12 4.144762 0 1.145905 0.75581 2.096762 2.096762 2.730666l9.289143 4.291048c4.193524 1.950476 6.022095 4.217905 6.022095 9.045333 0 3.413333-1.26781 6.436571-3.705905 8.606477-2.023619 1.828571-4.291048 2.56-7.850666 2.56-4.949333 0-8.46019-1.706667-10.48381-5.168762-1.121524-1.828571-1.536-3.462095-1.706667-6.777905h5.827048z m43.812571-24.771048v6.534096h-8.728381v29.500952h-6.095238v-29.500952h-8.947809v-6.534096h23.771428z m28.038096 0v22.235429c0 8.216381-2.438095 14.482286-11.922286 14.482286-9.435429 0-11.897905-6.168381-11.897905-14.482286V360.838095h6.070857v22.089143c0 5.851429 1.633524 8.118857 5.729524 8.118857 4.33981 0 5.924571-2.194286 5.924572-8.118857V360.838095h6.095238z m26.965333 0v6.534096h-8.752762v29.500952h-6.095238v-29.500952h-8.923429v-6.534096h23.771429z m40.813714 16.505905h12.263619v19.529143h-4.193523l-0.609524-4.534857c-2.31619 3.608381-5.12 5.217524-8.850286 5.217524-7.94819 0-13.58019-7.606857-13.58019-18.383239 0-11.459048 5.729524-19.017143 14.482285-19.017142 7.119238 0 11.849143 4.486095 12.751238 12.166095h-6.241523c-1.170286-3.900952-3.169524-5.656381-6.460953-5.656381-5.095619 0-8.265143 4.705524-8.265143 12.214857 0 7.363048 3.267048 12.166095 8.265143 12.166095 3.803429 0 6.339048-2.681905 7.119238-7.509333h-6.680381v-6.192762z m26.185143-16.505905h6.875429l10.435047 36.035048h-6.631619l-2.023619-7.558095h-10.727619l-2.072381 7.558095h-6.363428l10.50819-36.035048z m7.021714 22.308572l-3.705904-14.043429-3.705905 14.043429h7.411809z m26.672762-22.308572c4.217905 0 5.802667 0.438857 7.558096 2.072381a11.117714 11.117714 0 0 1 3.072 8.289524c0 4.169143-1.024 6.290286-4.193524 8.387048 2.876952 1.511619 3.218286 2.511238 3.462095 9.48419 0.195048 5.827048 0.341333 6.704762 1.29219 7.801905h-6.729142a15.457524 15.457524 0 0 1-0.731429-5.680762c-0.170667-5.290667 0.585143-8.533333-5.046857-8.533333h-5.607619v14.214095h-6.070857v-36.035048h12.995047z m-6.899809 15.725715h5.778286c4.144762 0 5.485714-1.145905 5.485714-4.632381 0-3.535238-1.29219-4.559238-5.485714-4.559238h-5.778286v9.191619z m44.714666-15.725715v6.534096h-8.777142v29.500952h-6.046477v-29.500952h-8.947809v-6.534096h23.771428z m-111.811047 0v6.534096h-8.777143v29.500952h-6.070857v-29.500952h-8.94781v-6.534096h23.79581zM910.287238 70.265905V66.80381c15.725714 0 28.379429 12.726857 28.379429 28.379428a28.476952 28.476952 0 1 1-28.379429-28.379428v3.413333c-13.848381 0-25.014857 11.190857-25.014857 24.966095a24.990476 24.990476 0 1 0 25.014857-24.941714z m-6.704762 11.897905v28.964571h-3.85219V79.335619h13.848381c2.681905 0 5.36381 0.146286 7.728762 1.560381 2.389333 1.340952 3.584 4.169143 3.584 6.851048 0 6.265905-4.388571 8.582095-10.044953 8.728381l9.606095 14.652952h-4.632381l-9.069714-14.652952h-7.168v-3.047619h5.973334c4.461714 0 11.385905 0.731429 11.385904-5.753905 0-4.900571-4.315429-5.510095-8.265143-5.510095h-9.094095z" fill="#1A1919" p-id="2122"></path></svg>