<?xml version="1.0" standalone="no"?><!DOCTYPE svg PUBLIC "-//W3C//DTD SVG 1.1//EN" "http://www.w3.org/Graphics/SVG/1.1/DTD/svg11.dtd"><svg t="1514166825409" class="icon" style="" viewBox="0 0 1024 1024" version="1.1" xmlns="http://www.w3.org/2000/svg" p-id="5209" xmlns:xlink="http://www.w3.org/1999/xlink" width="200" height="200"><defs><style type="text/css"></style></defs><path d="M307.019 909.69l15.184 8.195h91.102l15.184-7.59v-12.65h-121.47v12.045zM491.756 882.466h63.266l15.184-7.59v-12.65h-98.695v58.188h86.041v17.709h-75.919l-15.184 8.195v12.045h106.287v-55.658h-80.981v-20.239zM307.019 874.271l15.184 8.195h91.102l15.184-7.59v-12.65h-121.47v12.045zM307.019 950.168l15.184 8.195h91.102l15.184-7.59v-12.649h-121.47v12.043zM142.529 874.271l15.184 8.195h35.429v78.427h20.244v-78.427h35.429l15.184-7.59v-12.65h-121.47v12.045zM760.001 862.227v12.045l15.184 8.195h91.104l15.184-7.59v-12.65h-121.471zM767.593 960.893h20.4l-0.155-43.008h65.796l0.067 43.008h20.178v-58.188h-106.287v58.188zM648.654 862.227h-20.244v96.135h86.041l15.184-7.59v-12.649h-80.981v-75.897zM825.533 176.419l22.776-40.478c-337.977-163.875-673.147 0-673.147 0l25.306 40.478c331.399-153.852 625.065 0 625.065 0zM726.839 259.905c49.906-25.758 88.572-68.307 88.572-68.307-108.668-58.079-237.879-58.188-237.879-58.188l-63.675 80.438-63.502-80.438c0 0-128.859 0.109-237.233 58.188 0 0 38.561 42.549 88.331 68.307 0 0-11.194-67.21 121.14-48.068l90.853 513.986v4.641l0.412-2.318 0.41 2.318v-4.629l91.103-513.999c132.694-19.142 121.469 48.068 121.469 48.068z" p-id="5210" fill="#515151"></path></svg>